<svg width="179" height="50" viewBox="0 0 179 50" fill="none" xmlns="http://www.w3.org/2000/svg">
<g clip-path="url(#clip0_1052_376)">
<path d="M27.9029 5.5V13.4541H19.1023V37.5H8.70871V13.4541H0V5.5H27.9029Z" fill="#FF0000"/>
<path d="M43.697 12.5V37.5H32.6411V12.5H43.697Z" fill="#FF0000"/>
<path d="M63.1821 13.018C64.4082 12.3384 65.8762 11.9993 67.5861 12.0007C69.5526 11.9777 71.4821 12.5198 73.1311 13.5586C74.7786 14.5985 76.0757 16.1048 77.0222 18.0774C77.9687 20.05 78.4426 22.3768 78.4441 25.0578C78.4441 27.7388 77.9701 30.0656 77.0222 32.0382C76.0742 34.0108 74.7772 35.5164 73.1311 36.555C71.4825 37.5947 69.5528 38.1369 67.5861 38.1128C65.8833 38.1128 64.4153 37.7744 63.1821 37.0977C61.9866 36.4524 61.0076 35.4877 60.3617 34.3183V50H50.0146V12.3164H60.3617V15.8035C61.0064 14.6317 61.9855 13.6647 63.1821 13.018ZM66.8858 21.8905C66.5287 21.5339 66.1014 21.2504 65.6292 21.0568C65.157 20.8632 64.6495 20.7635 64.1368 20.7635C63.6241 20.7635 63.1166 20.8632 62.6444 21.0568C62.1721 21.2504 61.7448 21.5339 61.3877 21.8905C60.6782 22.643 60.3234 23.6973 60.3234 25.0537C60.3234 26.41 60.6782 27.4637 61.3877 28.2148C61.7448 28.5714 62.1721 28.8549 62.6444 29.0485C63.1166 29.242 63.6241 29.3418 64.1368 29.3418C64.6495 29.3418 65.157 29.242 65.6292 29.0485C66.1014 28.8549 66.5287 28.5714 66.8858 28.2148C67.5954 27.4637 67.9501 26.41 67.9501 25.0537C67.9501 23.6973 67.5954 22.6443 66.8858 21.8946V21.8905Z" fill="#FF0000"/>
<path d="M97.4054 12.9572C98.6321 12.2926 100.101 11.961 101.812 11.9623C103.776 11.9418 105.702 12.4719 107.349 13.4859C108.997 14.5029 110.296 15.976 111.244 17.9052C112.193 19.8343 112.666 22.1099 112.665 24.7319C112.665 27.3538 112.191 29.6294 111.244 31.5586C110.297 33.4877 108.999 34.9601 107.349 35.9758C105.703 36.9907 103.776 37.5209 101.812 37.4994C100.108 37.4994 98.6392 37.1684 97.4054 36.5065C96.2098 35.8749 95.2304 34.9315 94.5836 33.7884V37.1906H84.2354V4.5H94.5878V15.6814C95.2323 14.5364 96.2102 13.5908 97.4054 12.9572ZM101.111 21.6343C100.754 21.2856 100.326 21.0083 99.8538 20.819C99.3813 20.6297 98.8736 20.5321 98.3606 20.5321C97.8476 20.5321 97.3399 20.6297 96.8674 20.819C96.395 21.0083 95.9674 21.2856 95.6101 21.6343C94.9002 22.3702 94.5452 23.4014 94.5452 24.7278C94.5452 26.0543 94.9002 27.0848 95.6101 27.8193C95.9674 28.1681 96.395 28.4453 96.8674 28.6346C97.3399 28.8239 97.8476 28.9215 98.3606 28.9215C98.8736 28.9215 99.3813 28.8239 99.8538 28.6346C100.326 28.4453 100.754 28.1681 101.111 27.8193C101.821 27.0848 102.176 26.0543 102.176 24.7278C102.176 23.4014 101.822 22.3716 101.115 21.6384L101.111 21.6343Z" fill="#FF0000"/>
<path d="M167.273 37.498L162.774 31.8704L159.416 37.498H147.885L156.822 24.3401L147.412 12.5H159.139L163.631 18.168L167.035 12.5H178.575L169.353 25.3542L179 37.5L167.273 37.498Z" fill="#FF0000"/>
<path d="M116.876 13.8014V35.6986C116.876 35.9352 116.926 36.1694 117.024 36.388C117.121 36.6065 117.263 36.8051 117.443 36.9724C117.622 37.1397 117.835 37.2724 118.07 37.3629C118.305 37.4534 118.556 37.5 118.81 37.5H142.32C142.832 37.5 143.324 37.3102 143.687 36.9724C144.049 36.6346 144.253 36.1764 144.253 35.6986V13.8014C144.253 13.3237 144.049 12.8655 143.687 12.5276C143.324 12.1898 142.832 12 142.32 12H118.81C118.298 12.0032 117.808 12.194 117.446 12.5311C117.085 12.8683 116.88 13.3246 116.876 13.8014ZM133.02 27.9488C132.719 28.2874 132.34 28.5599 131.913 28.747C131.485 28.934 131.019 29.031 130.546 29.031C130.074 29.031 129.607 28.934 129.18 28.747C128.752 28.5599 128.374 28.2874 128.072 27.9488C127.425 27.2275 127.101 26.1615 127.101 24.751C127.101 23.3405 127.433 22.2746 128.096 21.5532C128.395 21.2147 128.771 20.9421 129.197 20.7549C129.623 20.5677 130.088 20.4707 130.558 20.4707C131.029 20.4707 131.494 20.5677 131.919 20.7549C132.345 20.9421 132.721 21.2147 133.02 21.5532C133.685 22.2719 134.017 23.3378 134.015 24.751C134.014 26.1642 133.682 27.2302 133.02 27.9488Z" fill="#FF0000"/>
<path d="M38.1691 10C41.2221 10 43.697 7.76142 43.697 5C43.697 2.23858 41.2221 0 38.1691 0C35.1161 0 32.6411 2.23858 32.6411 5C32.6411 7.76142 35.1161 10 38.1691 10Z" fill="#FF0000"/>
</g>
<defs>
<clipPath id="clip0_1052_376">
<rect width="179" height="50" fill="white"/>
</clipPath>
</defs>
</svg>
